<?xml version="1.0" standalone="no"?>
<!DOCTYPE svg PUBLIC "-//W3C//DTD SVG 20010904//EN"
 "http://www.w3.org/TR/2001/REC-SVG-20010904/DTD/svg10.dtd">
<svg version="1.0" xmlns="http://www.w3.org/2000/svg"
 width="260.000000pt" height="260.000000pt" viewBox="0 0 260.000000 260.000000"
 preserveAspectRatio="xMidYMid meet">
<metadata>
Created by potrace 1.11, written by Peter Selinger 2001-2013
</metadata>
<g transform="translate(0.000000,260.000000) scale(0.100000,-0.100000)"
fill="#000000" stroke="none">
<path d="M1168 2595 c-2 -2 -26 -6 -53 -10 -177 -21 -377 -98 -546 -211 -84
-56 -258 -223 -318 -306 -67 -93 -118 -187 -159 -293 -70 -184 -92 -311 -87
-510 2 -77 6 -151 10 -165 3 -14 10 -47 16 -75 43 -220 162 -442 329 -618 80
-83 217 -197 238 -197 5 0 15 -7 22 -15 25 -30 252 -130 341 -149 13 -3 56
-13 94 -22 102 -24 380 -24 495 0 141 30 354 110 390 146 3 3 21 14 40 24 156
85 361 300 462 486 56 103 119 279 134 378 3 20 9 57 14 81 9 48 6 307 -4 356
-4 17 -9 44 -12 60 -9 46 -52 193 -61 207 -4 7 -8 19 -9 26 -4 24 -80 167
-129 242 -61 93 -246 280 -340 342 -147 98 -320 170 -490 204 -70 14 -367 29
-377 19z"/>
</g>
</svg>
